<svg id="Layer_1" data-name="Layer 1" xmlns="http://www.w3.org/2000/svg" viewBox="0 0 790.14 587.36"><defs><style>.cls-1{fill:#232323;}.cls-2{fill:#828282;}.cls-3{fill:#d6d6d6;}.cls-4{fill:#191919;}.cls-5{fill:#fed402;}.cls-6{fill:#0b0b0b;}.cls-7{fill:#727172;}</style></defs><title>simple logo</title><polygon class="cls-1" points="790.14 185.21 395.07 366.33 0 185.21 395.07 0 790.14 185.21"/><polygon class="cls-2" points="395.07 386.8 97.11 250.2 0 295.73 395.07 476.85 790.14 295.73 693.03 250.2 395.07 386.8"/><polygon class="cls-3" points="395.07 498.85 95.46 361.49 0 406.24 395.07 587.36 790.14 406.24 694.68 361.49 395.07 498.85"/><polygon class="cls-4" points="395.07 221.03 551.77 294.49 790.14 185.21 395.07 0 0 185.21 238.37 294.49 395.07 221.03"/><ellipse class="cls-5" cx="395.07" cy="183.17" rx="33.38" ry="21.37"/><polygon class="cls-6" points="395.07 110.51 670.96 239.85 790.14 185.21 395.07 0 0 185.21 119.18 239.85 395.07 110.51"/><polygon class="cls-7" points="216.29 304.85 97.11 250.21 0 295.74 119.18 350.38 216.29 304.85"/><polygon class="cls-7" points="670.96 350.38 790.14 295.74 693.03 250.21 573.84 304.85 670.96 350.38"/><polygon class="cls-5" points="395.07 186.75 589.26 277.31 602.45 271.26 395.07 175.49 395.07 186.75"/><polygon class="cls-5" points="589.27 277.3 582.68 570.17 595.86 562.49 602.45 271.26 589.27 277.3"/><circle class="cls-5" cx="591.4" cy="453.35" r="26.5"/><polygon class="cls-5" points="584.73 479.08 582.68 570.17 573.14 575.68 573.14 490.6 584.73 479.08"/><polygon class="cls-5" points="597.75 479.08 608.39 489.57 608.39 555.35 595.86 562.49 597.75 479.08"/></svg>